<svg width="18" height="21" viewBox="0 0 18 21" fill="none" xmlns="http://www.w3.org/2000/svg" stroke="#4B5664" stroke-width="2" stroke-linecap="round" stroke-linejoin="round">
    <!-- Outer shape with the general stroke applied -->
    <path d="M1.86214 6.74117L1.86216 6.7409C1.86726 6.67446 1.9213 6.625 1.98671 6.625H15.6532C15.7192 6.625 15.7728 6.6751 15.7778 6.73993L15.7778 6.74004L16.6362 17.9034L16.6362 17.904C16.6924 18.6298 16.1183 19.25 15.39 19.25H2.24996C1.5222 19.25 0.948271 18.6302 1.00377 17.9045C1.00378 17.9045 1.00378 17.9044 1.00379 17.9043L1.86214 6.74117Z" fill="none"/>

    <!-- Inner shape with stroke applied, using the general stroke settings -->
    <mask id="path-2-inside-1_1_540" fill="white">
        <path fill-rule="evenodd" clip-rule="evenodd" d="M4.31996 5.625V4.5C4.31996 2.01487 6.33484 0 8.81996 0C11.3051 0 13.32 2.01487 13.32 4.5V5.625"/>
    </mask>

    <path d="M2.31996 5.625C2.31996 6.72957 3.21539 7.625 4.31996 7.625C5.42453 7.625 6.31996 6.72957 6.31996 5.625H2.31996ZM11.32 5.625C11.32 6.72957 12.2154 7.625 13.32 7.625C14.4245 7.625 15.32 6.72957 15.32 5.625H11.32ZM6.31996 5.625V4.5H2.31996V5.625H6.31996ZM6.31996 4.5C6.31996 3.11944 7.43941 2 8.81996 2V-2C5.23027 -2 2.31996 0.910305 2.31996 4.5H6.31996ZM8.81996 2C10.2005 2 11.32 3.11944 11.32 4.5H15.32C15.32 0.910305 12.4097 -2 8.81996 -2V2ZM11.32 4.5V5.625H15.32V4.5H11.32Z" fill="#4B5664" mask="url(#path-2-inside-1_1_540)"/>
</svg>
