<svg width="18" height="18" fill="#7B8D9D" viewBox="0 0 18 18" xmlns="http://www.w3.org/2000/svg">
<path d="M10.6 6.6H9.6C9.6 7.15228 10.0477 7.6 10.6 7.6V6.6ZM8.2 1L8.2 0C7.80481 0 7.44669 0.232733 7.28619 0.593862L8.2 1ZM5 8.2L4.08619 7.79386C4.02936 7.92172 4 8.06008 4 8.2H5ZM5 17H4C4 17.5523 4.44772 18 5 18V17ZM14.024 17L14.0353 16H14.024V17ZM15.624 15.64L14.6356 15.4884L14.6353 15.4901L15.624 15.64ZM16.728 8.44L17.7164 8.59156L17.7167 8.59006L16.728 8.44ZM15.128 6.6V7.60006L15.1393 7.59994L15.128 6.6ZM5 18C5.55228 18 6 17.5523 6 17C6 16.4477 5.55228 16 5 16V18ZM5 9.2C5.55228 9.2 6 8.75228 6 8.2C6 7.64772 5.55228 7.2 5 7.2V9.2ZM11.6 6.6V3.4H9.6V6.6H11.6ZM11.6 3.4C11.6 1.52223 10.0778 0 8.2 0L8.2 2C8.9732 2 9.6 2.6268 9.6 3.4H11.6ZM7.28619 0.593862L4.08619 7.79386L5.91381 8.60614L9.11381 1.40614L7.28619 0.593862ZM4 8.2V17H6V8.2H4ZM5 18H14.024V16H5V18ZM14.0127 17.9999C15.3092 18.0146 16.4183 17.0718 16.6127 15.7899L14.6353 15.4901C14.5904 15.7859 14.3345 16.0034 14.0353 16.0001L14.0127 17.9999ZM16.6124 15.7916L17.7164 8.59156L15.7396 8.28844L14.6356 15.4884L16.6124 15.7916ZM17.7167 8.59006C17.8311 7.83588 17.6086 7.06947 17.1081 6.49383L15.5989 7.80619C15.7144 7.93903 15.7657 8.11589 15.7393 8.28994L17.7167 8.59006ZM17.1081 6.49383C16.6075 5.9182 15.8795 5.59143 15.1167 5.60006L15.1393 7.59994C15.3153 7.59794 15.4834 7.67335 15.5989 7.80619L17.1081 6.49383ZM15.128 5.6H10.6V7.6H15.128V5.6ZM5 16H2.6V18H5V16ZM2.6 16C2.26863 16 2 15.7314 2 15.4H0C0 16.8359 1.16406 18 2.6 18V16ZM2 15.4V9.8H0V15.4H2ZM2 9.8C2 9.46863 2.26863 9.2 2.6 9.2V7.2C1.16406 7.2 0 8.36406 0 9.8H2ZM2.6 9.2H5V7.2H2.6V9.2Z" />
</svg>
