<svg width="12" height="15" viewBox="0 0 12 15" fill="none" xmlns="http://www.w3.org/2000/svg">
<path fill-rule="evenodd" clip-rule="evenodd" d="M8.36591 0C8.41821 0.892668 8.20223 1.77682 7.76383 2.46471C7.33849 3.15616 6.69402 3.55444 6.01526 3.5453C5.97209 2.67833 6.19436 1.82449 6.63311 1.17184C7.07744 0.510351 7.69613 0.091948 8.36591 0ZM11.5437 4.94594C10.5796 5.51793 9.9863 6.52666 9.97172 7.61872C9.9731 8.85425 10.7398 9.96927 11.9191 10.4506C11.6923 11.1615 11.3504 11.8334 10.9062 12.4413C10.3096 13.3025 9.68401 14.1439 8.69115 14.1595C8.21896 14.17 7.90022 14.0389 7.56808 13.9024C7.22164 13.76 6.86062 13.6116 6.2957 13.6116C5.69658 13.6116 5.3194 13.7648 4.95563 13.9125C4.64127 14.0402 4.33692 14.1638 3.90799 14.1809C2.96245 14.2147 2.23983 13.2617 1.62152 12.4086C0.385703 10.6663 -0.576605 7.49849 0.713508 5.34304C1.31933 4.29251 2.45205 3.62588 3.69726 3.58705C4.23353 3.57641 4.74812 3.77587 5.19927 3.95074C5.5443 4.08447 5.85223 4.20383 6.10438 4.20383C6.32604 4.20383 6.62537 4.08919 6.97422 3.95558C7.52374 3.74512 8.19613 3.4876 8.88133 3.557C9.94605 3.58914 10.9327 4.10389 11.5437 4.94594Z" fill="#7B8D9D"/>
</svg>
