<svg width="18" height="18" stroke="#4B5664" viewBox="0 0 18 18" fill="none" xmlns="http://www.w3.org/2000/svg">
<path d="M17 8.50003L17 8.50264C17.003 9.665 16.7315 10.8116 16.2074 11.8492L16.2055 11.853C14.9358 14.3936 12.3398 15.9989 9.49961 16L9.49739 16C8.33503 16.0031 7.18838 15.7315 6.15085 15.2074C5.91286 15.0872 5.63672 15.067 5.38377 15.1513L1.58114 16.4189L2.84868 12.6163C2.933 12.3633 2.91281 12.0872 2.7926 11.8492C2.26854 10.8116 1.99697 9.665 2 8.50264L2 8.50042C2.0011 5.6602 3.60648 3.06428 6.14706 1.79453L6.14706 1.79454L6.15085 1.79263C7.18838 1.26857 8.33503 0.996994 9.49739 1.00003H9.5H9.97159C13.7571 1.22222 16.7778 4.24294 17 8.02845L17 8.50003Z"  stroke-width="2" stroke-linecap="round" stroke-linejoin="round"/>
</svg>
